<?xml version="1.0" encoding="UTF-8" standalone="no"?>
<!-- Created with Inkscape (http://www.inkscape.org/) -->

<svg
   xmlns:dc="http://purl.org/dc/elements/1.1/"
   xmlns:cc="http://creativecommons.org/ns#"
   xmlns:rdf="http://www.w3.org/1999/02/22-rdf-syntax-ns#"
   xmlns:svg="http://www.w3.org/2000/svg"
   xmlns="http://www.w3.org/2000/svg"
   xmlns:sodipodi="http://sodipodi.sourceforge.net/DTD/sodipodi-0.dtd"
   xmlns:inkscape="http://www.inkscape.org/namespaces/inkscape"
   version="1.1"
   id="svg815"
   width="200"
   height="200"
   viewBox="0 0 1280 1280"
   sodipodi:docname="SVG my logo.svg"
   inkscape:version="0.92.3 (2405546, 2018-03-11)">
  <metadata
     id="metadata821">
    <rdf:RDF>
      <cc:Work
         rdf:about="">
        <dc:format>image/svg+xml</dc:format>
        <dc:type
           rdf:resource="http://purl.org/dc/dcmitype/StillImage" />
        <dc:title></dc:title>
      </cc:Work>
    </rdf:RDF>
  </metadata>
  <defs
     id="defs819" />
  <sodipodi:namedview
     pagecolor="#ffffff"
     bordercolor="#666666"
     borderopacity="0"
     objecttolerance="10"
     gridtolerance="10"
     guidetolerance="10"
     inkscape:pageopacity="0"
     inkscape:pageshadow="2"
     inkscape:window-width="1366"
     inkscape:window-height="745"
     id="namedview817"
     showgrid="false"
     inkscape:zoom="0.45"
     inkscape:cx="451.11111"
     inkscape:cy="640"
     inkscape:window-x="-8"
     inkscape:window-y="-8"
     inkscape:window-maximized="1"
     inkscape:current-layer="svg815" />
  <g
     id="g825"
     transform="translate(-8.8888933,-22.222222)">
    <path
       style="fill:#e65b61"
       d="m 871.12022,1056.6449 c -0.82203,-0.9905 -1.0793,-8.3065 -0.88861,-25.2695 L 870.5,1007.5 h 22 22 v 25 25 l -21.11138,0.2695 c -17.0792,0.218 -21.33237,0 -22.2684,-1.1246 z m 99.11159,0.5306 c -0.97971,-0.6304 -1.20718,-6.373 -1,-25.2458 L 969.5,1007.5 l 22.26721,-0.2692 22.26719,-0.2692 -0.2672,25.2692 -0.2672,25.2692 -21,0.2458 c -11.55,0.1352 -21.57068,-0.1214 -22.26819,-0.5703 z M 287,1032.5 V 1008 h 241.91821 c 133.05502,0 242.63002,-0.2731 243.5,-0.607 1.38131,-0.53 1.58179,-3.6352 1.58179,-24.49999 0,-13.14115 -0.1125,-23.99499 -0.25,-24.11963 -0.1375,-0.12464 -22.75,-0.46214 -50.25,-0.75 L 673.5,957.5 v -73 -73 l 71.75,-0.25662 c 39.4625,-0.14114 71.85168,-0.14114 71.97595,0 0.12426,0.14114 0.46176,22.08162 0.75,48.75662 L 818.5,908.5 h 75.5 75.5 v -24 -24 L 943,860 916.5,859.5 916.23222,835.25 915.96444,811 h 48.41079 c 42.25547,0 48.48447,0.19203 48.99037,1.51026 0.8035,2.09395 0.8129,133.11953 0.01,139.95081 L 1012.7246,958 h -95.78049 c -52.6793,0 -96.49234,0.27314 -97.36232,0.60699 -1.41154,0.54166 -1.58179,5.69905 -1.58179,47.91821 0,26.0212 -0.27314,48.023 -0.60699,48.893 -0.55138,1.4369 -24.87471,1.5818 -265.5,1.5818 H 287 Z M 773.5,885 v -23.5 h -27 -27 l -0.26974,22.47737 c -0.14835,12.36255 -0.0471,23.05743 0.2249,23.76638 0.39023,1.01692 6.14657,1.23278 27.26974,1.02263 L 773.5,908.5 Z m -485.18945,71.75 c -0.44411,-0.6875 -0.9663,-88.22392 -1.1604,-194.52537 -0.27641,-151.3725 -0.0876,-193.59508 0.87091,-194.75 1.72436,-2.07773 41.1376,-2.19331 42.85359,-0.12567 0.81408,0.98091 1.18854,47.43165 1.37244,170.25 L 332.5,906.5 l 47.94705,0.25982 c 36.8322,0.19959 48.12964,0.54731 48.73469,1.5 1.35042,2.12632 0.99624,47.1622 -0.38174,48.54018 -1.78149,1.78149 -139.33796,1.73253 -140.48945,-0.05 z M 482,883.5 V 810 h 20.96482 c 19.70384,0 21.02708,-0.11634 22,-1.93426 1.10657,-2.06766 1.48827,-41.72142 0.42819,-44.48395 -0.52643,-1.37187 -3.35317,-1.58179 -21.3,-1.58179 -14.76123,0 -21.037,-0.34399 -21.89301,-1.2 -1.74607,-1.74607 -1.74607,-385.85393 0,-387.6 1.82206,-1.82206 40.15255,-1.68506 41.67464,0.14895 0.81404,0.98086 1.18854,47.30135 1.37245,169.75 L 525.5,711.5 l 22.61227,0.26842 c 18.15411,0.2155 22.836,-10e-4 23.74708,-1.09895 0.83429,-1.00526 1.2018,-45.96426 1.38774,-169.76842 L 573.5,372.5 l 22,-0.28254 c 12.1,-0.1554 23.0125,-0.0343 24.25,0.26905 l 2.25,0.55159 v 193.98095 c 0,106.68952 -0.1125,194.0729 -0.25,194.18529 -0.1375,0.11238 -11.05,0.44988 -24.25,0.75 l -24,0.54566 v 23.5 23.5 l 24,0.5 24,0.5 0.25649,73.25 0.25649,73.25 H 552.00649 482 Z m 90.78321,2.5 c 0.15577,-11.275 0.0326,-21.52092 -0.27375,-22.76871 l -0.55696,-2.26872 -22.72625,0.26872 L 526.5,861.5 l -0.26882,22.76848 -0.26882,22.76847 23.26882,-0.26847 L 572.5,906.5 Z M 383.45699,858.74851 c -0.27224,-0.70944 -0.37393,-11.85558 -0.22598,-24.7692 L 383.5,810.5 h 22.5 22.5 v 24.5 24.5 l -22.27402,0.2692 c -17.45994,0.21101 -22.381,-0.01 -22.76899,-1.02069 z M 965.46697,763.75 c -0.25864,-0.6875 -0.58202,-34.325 -0.71861,-74.75 L 964.5,615.5 h -25 -25 l -0.25972,48.44699 c -0.1996,37.2322 -0.54683,48.62934 -1.5,49.23469 -0.68216,0.43323 -32.34768,0.79459 -70.36784,0.80301 -54.12993,0.012 -69.33916,-0.25588 -70.10289,-1.23469 -0.62589,-0.80215 -0.75933,-26.68812 -0.37244,-72.25 l 0.60289,-71 47.94705,-0.25982 c 36.8322,-0.19959 48.12964,-0.54731 48.73469,-1.5 1.35428,-2.13241 0.99758,-52.16086 -0.38174,-53.54018 -0.89942,-0.89942 -13.01853,-1.2 -48.38337,-1.2 -44.1302,0 -47.20709,-0.11324 -47.55,-1.75 C 772.66498,510.2875 772.725,478.675 773,441 l 0.5,-68.5 h 70.5 70.5 v 98 98 l 49.16736,0.5 c 27.04205,0.275 49.44274,0.77567 49.77924,1.1126 0.756,0.75681 0.7362,192.78255 -0.02,194.00604 -0.2996,0.48475 -11.1073,0.88136 -24.0171,0.88136 -17.86042,0 -23.5848,-0.29886 -23.94263,-1.25 z M 869.21653,643.15798 c 0.15591,-13.66311 0.15035,-25.52383 -0.0123,-26.35716 -0.24755,-1.26787 -3.70423,-1.63171 -21.18201,-2.22955 -14.63005,-0.50042 -21.50563,-0.3829 -22.95419,0.39234 C 823.061,616.03772 823,616.81656 823,641.36852 c 0,13.91398 0.3,25.59815 0.66667,25.96481 C 824.03333,667.7 834.36827,668 846.63319,668 h 22.29986 z M 869.51393,465.75 c 0.30362,-1.2375 0.42469,-11.7 0.26905,-23.25 l -0.28298,-21 -22,-0.78822 c -14.46266,-0.51817 -22.77086,-0.43987 -24.25,0.22856 -2.23591,1.01042 -2.25,1.15676 -2.25,23.37155 0,12.29513 0.3,22.65478 0.66667,23.02144 C 822.03333,467.7 832.82476,468 845.64761,468 H 868.9619 Z M 677,519 V 276 h 167.44098 c 112.42276,0 167.64752,0.33419 168.06962,1.01708 0.3457,0.55939 0.303,32.95939 -0.095,72 L 1011.6921,420 H 990.34607 969 v -49.3 c 0,-37.01111 -0.29912,-49.59912 -1.2,-50.5 -1.74273,-1.74273 -244.85727,-1.74273 -246.6,0 -0.92607,0.92607 -1.2,51.48889 -1.2,221.5 V 762 H 698.5 677 Z m -292.24333,22.58329 c -0.14117,-120.67919 -0.54024,-219.70026 -0.88683,-220.04682 -0.93401,-0.93395 -44.82799,-1.9545 -49.1544,-1.14286 L 331,321.09063 v 98.33224 c 0,82.3319 -0.22429,98.51839 -1.37842,99.47623 -0.95812,0.79516 -7.43771,1.06119 -21.25,0.87245 L 288.5,519.5 v -121 -121 h 69 69 l 0.25204,241.75 0.25203,241.75 H 406.0087 385.01333 Z M 988.23195,519.25125 968.9639,518.95669 969.23195,495.22834 969.5,471.5 h 21.5 21.5 l 0.2689,23.42932 c 0.2779,24.21691 0.1021,25.37482 -3.7689,24.82827 -0.825,-0.11648 -10.17062,-0.34433 -20.76805,-0.50634 z M 524.7309,321.25025 479.96179,320.97938 480.2309,298.73969 480.5,276.5 l 69,-0.27572 c 37.95,-0.15165 70.0125,-0.0306 71.25,0.26905 2.24816,0.54433 2.25,0.56271 2.25,22.41873 0,19.0237 -0.20611,21.95306 -1.58179,22.48095 -0.86998,0.33385 -12.90748,0.49924 -26.75,0.36755 -13.84251,-0.13169 -45.31431,-0.36133 -69.93731,-0.51031 z"
       id="path833"
       inkscape:connector-curvature="0" />
    <path
       style="fill:#e42029"
       d="M 287,1032.5 V 1008 h 241.91821 c 133.05502,0 242.63002,-0.2731 243.5,-0.607 1.38131,-0.53 1.58179,-3.6352 1.58179,-24.49999 0,-13.14115 -0.1125,-23.99499 -0.25,-24.11963 -0.1375,-0.12464 -22.75,-0.46214 -50.25,-0.75 L 673.5,957.5 v -73 -73 l 71.75,-0.25662 c 39.4625,-0.14114 71.85168,-0.14114 71.97595,0 0.12426,0.14114 0.46176,22.08162 0.75,48.75662 L 818.5,908.5 h 75.5 75.5 v -24 -24 L 943,860 916.5,859.5 916.23222,835.25 915.96444,811 h 48.41079 c 42.25547,0 48.48447,0.19203 48.99037,1.51026 0.8035,2.09395 0.8129,133.11953 0.01,139.95081 L 1012.7246,958 h -95.78049 c -52.6793,0 -96.49234,0.27314 -97.36232,0.60699 -1.41154,0.54166 -1.58179,5.69905 -1.58179,47.91821 0,26.0212 -0.27314,48.023 -0.60699,48.893 -0.55138,1.4369 -24.87471,1.5818 -265.5,1.5818 H 287 Z M 773.5,885 v -23.5 h -27 -27 l -0.26974,22.47737 c -0.14835,12.36255 -0.0471,23.05743 0.2249,23.76638 0.39023,1.01692 6.14657,1.23278 27.26974,1.02263 L 773.5,908.5 Z m 98.16667,170.3333 c -0.95712,-0.9571 -0.7955,-44.5821 0.17081,-46.1046 0.6191,-0.9754 5.56019,-1.2081 21.23468,-1 L 913.5,1008.5 l 0.2681,23.75 0.2681,23.75 h -20.85143 c -11.46829,0 -21.15144,-0.3 -21.5181,-0.6667 z m 98.78221,-0.6059 c -0.2686,-0.7 -0.36697,-11.3875 -0.21862,-23.75 L 970.5,1008.5 h 21 21 l 0.2681,23.75 0.2681,23.75 h -21.04949 c -16.11671,0 -21.16392,-0.2982 -21.53783,-1.2726 z M 289.22943,955.2569 C 288.83723,954.29061 288.51266,866.875 288.50817,761 l -0.008,-192.5 20.75,-0.27029 20.75,-0.27029 v 168.08603 c 0,113.95361 0.33338,168.70896 1.03518,170.02029 1.00138,1.87109 2.60225,1.93426 49.01778,1.93426 h 47.9826 l -0.26778,24.25 -0.26778,24.25 -68.77874,0.2569 c -64.80748,0.24207 -68.81991,0.15546 -69.49183,-1.5 z M 482,883.5 V 810 h 20.96482 c 19.70384,0 21.02708,-0.11634 22,-1.93426 1.10657,-2.06766 1.48827,-41.72142 0.42819,-44.48395 -0.52643,-1.37187 -3.35317,-1.58179 -21.3,-1.58179 -14.76123,0 -21.037,-0.34399 -21.89301,-1.2 -1.74607,-1.74607 -1.74607,-385.85393 0,-387.6 1.82206,-1.82206 40.15255,-1.68506 41.67464,0.14895 0.81404,0.98086 1.18854,47.30135 1.37245,169.75 L 525.5,711.5 l 22.61227,0.26842 c 18.15411,0.2155 22.836,-10e-4 23.74708,-1.09895 0.83429,-1.00526 1.2018,-45.96426 1.38774,-169.76842 L 573.5,372.5 l 22,-0.28254 c 12.1,-0.1554 23.0125,-0.0343 24.25,0.26905 l 2.25,0.55159 v 193.98095 c 0,106.68952 -0.1125,194.0729 -0.25,194.18529 -0.1375,0.11238 -11.05,0.44988 -24.25,0.75 l -24,0.54566 v 23.5 23.5 l 24,0.5 24,0.5 0.25649,73.25 0.25649,73.25 H 552.00649 482 Z m 90.78321,2.5 c 0.15577,-11.275 0.0326,-21.52092 -0.27375,-22.76871 l -0.55696,-2.26872 -22.72625,0.26872 L 526.5,861.5 l -0.26882,22.76848 -0.26882,22.76847 23.26882,-0.26847 L 572.5,906.5 Z M 383.45699,858.74851 c -0.27224,-0.70944 -0.37393,-11.85558 -0.22598,-24.7692 L 383.5,810.5 h 22.5 22.5 v 24.5 24.5 l -22.27402,0.2692 c -17.45994,0.21101 -22.381,-0.01 -22.76899,-1.02069 z m 582.97557,-95.85763 c -0.38965,-0.63047 -0.53388,-34.12552 -0.32051,-74.43343 0.21337,-40.30791 0.0138,-73.66294 -0.4435,-74.12228 -1.31492,-1.32079 -48.18644,-1.66356 -50.60336,-0.37006 -2.01228,1.07694 -2.0503,1.89013 -2.3056,49.31494 L 912.5,711.5 l -69.75671,0.2568 -69.75671,0.2568 0.25671,-70.7568 L 773.5,570.5 l 46.53937,0.39791 c 34.57856,0.29564 47.10752,0.0938 48.75,-0.78519 C 870.98723,568.93647 871,568.7721 871,541.66482 871,521.79218 870.67465,514.07465 869.8,513.2 868.90049,512.30049 856.75403,512 821.29315,512 h -47.30684 l 0.25684,-69.25 0.25685,-69.25 69.25,-0.25685 c 55.06459,-0.20423 69.25299,6.2e-4 69.26458,1 0.008,0.69127 0.002,44.6279 -0.0145,97.63696 -0.0213,70.55917 0.27554,96.74711 1.10787,97.75 0.93422,1.12567 9.85164,1.36989 50.01946,1.36989 H 1013.01 l -0.255,96.25 -0.255,96.25 -22.67952,0.26859 c -16.22954,0.19221 -22.88098,-0.0574 -23.38795,-0.87771 z m -97.00399,-94.46231 c 2.35712,-2.35712 2.35712,-51.50002 0,-53.85714 -1.33214,-1.33215 -4.88009,-1.57143 -23.3,-1.57143 -15.56667,0 -22.06887,0.3403 -22.92857,1.2 -0.87203,0.87203 -1.2,8.33333 -1.2,27.3 0,18.96667 0.32797,26.42797 1.2,27.3 0.8597,0.8597 7.3619,1.2 22.92857,1.2 18.41991,0 21.96786,-0.23928 23.3,-1.57143 z m 1.34017,-223.30353 c 0.18858,-16.40277 -0.0716,-23.7851 -0.87245,-24.75 C 868.98907,419.28191 864.08158,419 845.95934,419 c -12.53767,0 -23.50757,0.27314 -24.37755,0.60699 -1.38089,0.52989 -1.58179,3.6205 -1.58179,24.33333 0,13.04949 0.30768,24.03403 0.68374,24.41008 0.37605,0.37606 11.73855,0.56356 25.25,0.41667 L 870.5,468.5 Z M 677,519 V 276 h 167.44098 c 112.42276,0 167.64752,0.33419 168.06962,1.01708 0.3457,0.55939 0.303,32.95939 -0.095,72 L 1011.6921,420 H 990.34607 969 v -49.3 c 0,-37.01111 -0.29912,-49.59912 -1.2,-50.5 -1.74273,-1.74273 -244.85727,-1.74273 -246.6,0 -0.92607,0.92607 -1.2,51.48889 -1.2,221.5 V 762 H 698.5 677 Z m -292.24333,22.58329 c -0.14117,-120.67919 -0.54024,-219.70026 -0.88683,-220.04682 -0.93401,-0.93395 -44.82799,-1.9545 -49.1544,-1.14286 L 331,321.09063 v 98.33224 c 0,82.3319 -0.22429,98.51839 -1.37842,99.47623 -0.95812,0.79516 -7.43771,1.06119 -21.25,0.87245 L 288.5,519.5 v -121 -121 h 69 69 l 0.25204,241.75 0.25203,241.75 H 406.0087 385.01333 Z M 988.23195,519.25125 968.9639,518.95669 969.23195,495.22834 969.5,471.5 h 21.5 21.5 l 0.2689,23.42932 c 0.2779,24.21691 0.1021,25.37482 -3.7689,24.82827 -0.825,-0.11648 -10.17062,-0.34433 -20.76805,-0.50634 z M 481.23011,298.75 481.5,277.5 l 13.75,0.0167 c 7.5625,0.009 39.175,0.12166 70.25,0.25 L 622,278 v 21 21 h -70.51989 -70.51989 z"
       id="path831"
       inkscape:connector-curvature="0" />
    <path
       style="fill:#32338b"
       d="M 287,1032.5 V 1008 h 241.91821 c 133.05502,0 242.63002,-0.2731 243.5,-0.607 1.38131,-0.53 1.58179,-3.6352 1.58179,-24.49999 0,-13.14115 -0.1125,-23.99499 -0.25,-24.11963 -0.1375,-0.12464 -22.75,-0.46214 -50.25,-0.75 L 673.5,957.5 v -73 -73 l 71.75,-0.25662 c 39.4625,-0.14114 71.85168,-0.14114 71.97595,0 0.12426,0.14114 0.46176,22.08162 0.75,48.75662 L 818.5,908.5 h 75.5 75.5 v -24 -24 L 943,860 916.5,859.5 916.23222,835.25 915.96444,811 h 48.41079 c 42.25547,0 48.48447,0.19203 48.99037,1.51026 0.8035,2.09395 0.8129,133.11953 0.01,139.95081 L 1012.7246,958 h -95.78049 c -52.6793,0 -96.49234,0.27314 -97.36232,0.60699 -1.41154,0.54166 -1.58179,5.69905 -1.58179,47.91821 0,26.0212 -0.27314,48.023 -0.60699,48.893 -0.55138,1.4369 -24.87471,1.5818 -265.5,1.5818 H 287 Z M 773.5,885 v -23.5 h -27 -27 l -0.26974,22.47737 c -0.14835,12.36255 -0.0471,23.05743 0.2249,23.76638 0.39023,1.01692 6.14657,1.23278 27.26974,1.02263 L 773.5,908.5 Z M 482,883.5 V 810 h 20.96482 c 19.70384,0 21.02708,-0.11634 22,-1.93426 1.10657,-2.06766 1.48827,-41.72142 0.42819,-44.48395 -0.52643,-1.37187 -3.35317,-1.58179 -21.3,-1.58179 -14.76123,0 -21.037,-0.34399 -21.89301,-1.2 -1.74607,-1.74607 -1.74607,-385.85393 0,-387.6 1.82206,-1.82206 40.15255,-1.68506 41.67464,0.14895 0.81404,0.98086 1.18854,47.30135 1.37245,169.75 L 525.5,711.5 l 22.61227,0.26842 c 18.15411,0.2155 22.836,-10e-4 23.74708,-1.09895 0.83429,-1.00526 1.2018,-45.96426 1.38774,-169.76842 L 573.5,372.5 l 22,-0.28254 c 12.1,-0.1554 23.0125,-0.0343 24.25,0.26905 l 2.25,0.55159 v 193.98095 c 0,106.68952 -0.1125,194.0729 -0.25,194.18529 -0.1375,0.11238 -11.05,0.44988 -24.25,0.75 l -24,0.54566 v 23.5 23.5 l 24,0.5 24,0.5 0.25649,73.25 0.25649,73.25 H 552.00649 482 Z m 90.78321,2.5 c 0.15577,-11.275 0.0326,-21.52092 -0.27375,-22.76871 l -0.55696,-2.26872 -22.72625,0.26872 L 526.5,861.5 l -0.26882,22.76848 -0.26882,22.76847 23.26882,-0.26847 L 572.5,906.5 Z M 383.45699,858.74851 c -0.27224,-0.70944 -0.37393,-11.85558 -0.22598,-24.7692 L 383.5,810.5 h 22.5 22.5 v 24.5 24.5 l -22.27402,0.2692 c -17.45994,0.21101 -22.381,-0.01 -22.76899,-1.02069 z M 677,519 V 276 h 167.44098 c 112.42276,0 167.64752,0.33419 168.06962,1.01708 0.3457,0.55939 0.303,32.95939 -0.095,72 L 1011.6921,420 H 990.34607 969 v -49.3 c 0,-37.01111 -0.29912,-49.59912 -1.2,-50.5 -1.74273,-1.74273 -244.85727,-1.74273 -246.6,0 -0.92607,0.92607 -1.2,51.48889 -1.2,221.5 V 762 H 698.5 677 Z m -292.24333,22.58329 c -0.14117,-120.67919 -0.54024,-219.70026 -0.88683,-220.04682 -0.93401,-0.93395 -44.82799,-1.9545 -49.1544,-1.14286 L 331,321.09063 v 98.33224 c 0,82.3319 -0.22429,98.51839 -1.37842,99.47623 -0.95812,0.79516 -7.43771,1.06119 -21.25,0.87245 L 288.5,519.5 v -121 -121 h 69 69 l 0.25204,241.75 0.25203,241.75 H 406.0087 385.01333 Z M 988.23195,519.25125 968.9639,518.95669 969.23195,495.22834 969.5,471.5 h 21.5 21.5 l 0.2689,23.42932 c 0.2779,24.21691 0.1021,25.37482 -3.7689,24.82827 -0.825,-0.11648 -10.17062,-0.34433 -20.76805,-0.50634 z"
       id="path829"
       inkscape:connector-curvature="0" />
    <path
       style="fill:#029a4d"
       d="M 287,1032.5 V 1008 h 241.91821 c 133.05502,0 242.63002,-0.2731 243.5,-0.607 1.38131,-0.53 1.58179,-3.6352 1.58179,-24.49999 0,-13.14115 -0.1125,-23.99499 -0.25,-24.11963 -0.1375,-0.12464 -22.75,-0.46214 -50.25,-0.75 L 673.5,957.5 v -73 -73 l 71.75,-0.25662 c 39.4625,-0.14114 71.85168,-0.14114 71.97595,0 0.12426,0.14114 0.46176,22.08162 0.75,48.75662 L 818.5,908.5 h 75.5 75.5 v -24 -24 L 943,860 916.5,859.5 916.23222,835.25 915.96444,811 h 48.41079 c 42.25547,0 48.48447,0.19203 48.99037,1.51026 0.8035,2.09395 0.8129,133.11953 0.01,139.95081 L 1012.7246,958 h -95.78049 c -52.6793,0 -96.49234,0.27314 -97.36232,0.60699 -1.41154,0.54166 -1.58179,5.69905 -1.58179,47.91821 0,26.0212 -0.27314,48.023 -0.60699,48.893 -0.55138,1.4369 -24.87471,1.5818 -265.5,1.5818 H 287 Z M 773.5,885 v -23.5 h -27 -27 l -0.26974,22.47737 c -0.14835,12.36255 -0.0471,23.05743 0.2249,23.76638 0.39023,1.01692 6.14657,1.23278 27.26974,1.02263 L 773.5,908.5 Z M 677,519 V 276 h 167.44098 c 112.42276,0 167.64752,0.33419 168.06962,1.01708 0.3457,0.55939 0.303,32.95939 -0.095,72 L 1011.6921,420 H 990.34607 969 v -49.3 c 0,-37.01111 -0.29912,-49.59912 -1.2,-50.5 -1.74273,-1.74273 -244.85727,-1.74273 -246.6,0 -0.92607,0.92607 -1.2,51.48889 -1.2,221.5 V 762 H 698.5 677 Z m -292.24333,22.58329 c -0.14117,-120.67919 -0.54024,-219.70026 -0.88683,-220.04682 -0.93401,-0.93395 -44.82799,-1.9545 -49.1544,-1.14286 L 331,321.09063 v 98.33224 c 0,82.3319 -0.22429,98.51839 -1.37842,99.47623 -0.95812,0.79516 -7.43771,1.06119 -21.25,0.87245 L 288.5,519.5 v -121 -121 h 69 69 l 0.25204,241.75 0.25203,241.75 H 406.0087 385.01333 Z"
       id="path827"
       inkscape:connector-curvature="0" />
  </g>
</svg>
